<mxfile host="Electron" modified="2024-06-12T12:32:20.667Z" agent="Mozilla/5.0 (Macintosh; Intel Mac OS X 10_15_7) AppleWebKit/537.36 (KHTML, like Gecko) draw.io/24.5.3 Chrome/124.0.6367.207 Electron/30.0.6 Safari/537.36" etag="lTntCX8iyRyr21LRAutw" version="24.5.3" type="device">
  <diagram name="Page-1" id="GkkEOL98C8HZ3wowHvGj">
    <mxGraphModel dx="969" dy="694" grid="1" gridSize="10" guides="1" tooltips="1" connect="1" arrows="1" fold="1" page="1" pageScale="1" pageWidth="850" pageHeight="1100" background="#1A1A1A" math="0" shadow="0">
      <root>
        <mxCell id="0" />
        <mxCell id="1" parent="0" />
        <mxCell id="mxII4eqioMXQVbiZ0eOf-2" value="" style="edgeStyle=orthogonalEdgeStyle;rounded=0;orthogonalLoop=1;jettySize=auto;html=1;" edge="1" parent="1" source="Q-QAuIf6XU0c7qWIejgf-1" target="mxII4eqioMXQVbiZ0eOf-1">
          <mxGeometry relative="1" as="geometry" />
        </mxCell>
        <mxCell id="Q-QAuIf6XU0c7qWIejgf-1" value="Initialization:&lt;div&gt;Set registers to 0&lt;br&gt;&lt;div&gt;Clear Screen&lt;/div&gt;&lt;div&gt;Show MBR message&lt;/div&gt;&lt;/div&gt;" style="rounded=0;whiteSpace=wrap;html=1;fontSize=15;align=center;" parent="1" vertex="1">
          <mxGeometry x="320" y="40" width="200" height="120" as="geometry" />
        </mxCell>
        <mxCell id="mxII4eqioMXQVbiZ0eOf-4" value="" style="edgeStyle=orthogonalEdgeStyle;rounded=0;orthogonalLoop=1;jettySize=auto;html=1;" edge="1" parent="1" source="mxII4eqioMXQVbiZ0eOf-1" target="mxII4eqioMXQVbiZ0eOf-3">
          <mxGeometry relative="1" as="geometry" />
        </mxCell>
        <mxCell id="mxII4eqioMXQVbiZ0eOf-1" value="set cx: sectors to read" style="whiteSpace=wrap;html=1;fontSize=15;rounded=0;" vertex="1" parent="1">
          <mxGeometry x="320" y="200" width="200" height="40" as="geometry" />
        </mxCell>
        <mxCell id="mxII4eqioMXQVbiZ0eOf-14" style="edgeStyle=orthogonalEdgeStyle;rounded=0;orthogonalLoop=1;jettySize=auto;html=1;exitX=1;exitY=0.5;exitDx=0;exitDy=0;endArrow=none;endFill=0;" edge="1" parent="1" source="mxII4eqioMXQVbiZ0eOf-3">
          <mxGeometry relative="1" as="geometry">
            <mxPoint x="600" y="300" as="targetPoint" />
          </mxGeometry>
        </mxCell>
        <mxCell id="mxII4eqioMXQVbiZ0eOf-16" value="" style="edgeStyle=orthogonalEdgeStyle;rounded=0;orthogonalLoop=1;jettySize=auto;html=1;" edge="1" parent="1" source="mxII4eqioMXQVbiZ0eOf-3" target="mxII4eqioMXQVbiZ0eOf-15">
          <mxGeometry relative="1" as="geometry" />
        </mxCell>
        <mxCell id="mxII4eqioMXQVbiZ0eOf-3" value="Read sectors = cx ?" style="rhombus;whiteSpace=wrap;html=1;fontSize=15;rounded=0;" vertex="1" parent="1">
          <mxGeometry x="320" y="360" width="200" height="80" as="geometry" />
        </mxCell>
        <mxCell id="mxII4eqioMXQVbiZ0eOf-5" value="Read 1 sector (M 16)" style="whiteSpace=wrap;html=1;fontSize=15;rounded=0;" vertex="1" parent="1">
          <mxGeometry x="320" y="280" width="200" height="40" as="geometry" />
        </mxCell>
        <mxCell id="mxII4eqioMXQVbiZ0eOf-13" value="" style="edgeStyle=orthogonalEdgeStyle;rounded=0;orthogonalLoop=1;jettySize=auto;html=1;" edge="1" parent="1" target="mxII4eqioMXQVbiZ0eOf-5">
          <mxGeometry relative="1" as="geometry">
            <mxPoint x="600" y="300" as="sourcePoint" />
          </mxGeometry>
        </mxCell>
        <mxCell id="mxII4eqioMXQVbiZ0eOf-15" value="Go to Loader" style="whiteSpace=wrap;html=1;fontSize=15;rounded=0;" vertex="1" parent="1">
          <mxGeometry x="360" y="480" width="120" height="40" as="geometry" />
        </mxCell>
        <mxCell id="mxII4eqioMXQVbiZ0eOf-17" value="False" style="text;html=1;align=center;verticalAlign=middle;whiteSpace=wrap;rounded=0;" vertex="1" parent="1">
          <mxGeometry x="510" y="370" width="60" height="30" as="geometry" />
        </mxCell>
        <mxCell id="mxII4eqioMXQVbiZ0eOf-19" value="True" style="text;html=1;align=center;verticalAlign=middle;whiteSpace=wrap;rounded=0;" vertex="1" parent="1">
          <mxGeometry x="420" y="440" width="60" height="30" as="geometry" />
        </mxCell>
        <mxCell id="mxII4eqioMXQVbiZ0eOf-20" value="In the experiment, I set cx to 4" style="text;html=1;align=center;verticalAlign=middle;whiteSpace=wrap;rounded=0;" vertex="1" parent="1">
          <mxGeometry x="530" y="205" width="190" height="30" as="geometry" />
        </mxCell>
      </root>
    </mxGraphModel>
  </diagram>
</mxfile>
